{
    "asset" : {
        "generator" : "Khronos glTF Blender I/O v3.3.35",
        "version" : "2.0"
    },
    "scene" : 0,
    "scenes" : [
        {
            "name" : "Scene",
            "nodes" : [
                0
            ]
        }
    ],
    "nodes" : [
        {
            "mesh" : 0,
            "name" : "Cylinder.104",
            "rotation" : [
                0,
                -0.9998085498809814,
                -0.019566940143704414,
                7.57321885203055e-08
            ],
            "scale" : [
                1.1389278173446655,
                0.5766060948371887,
                0.5766061544418335
            ]
        }
    ],
    "materials" : [
        {
            "doubleSided" : true,
            "name" : "STeel#01.006",
            "pbrMetallicRoughness" : {
                "baseColorFactor" : [
                    0.46778395771980286,
                    0.46778395771980286,
                    0.46778395771980286,
                    1
                ],
                "roughnessFactor" : 0.6000000238418579
            }
        },
        {
            "doubleSided" : true,
            "name" : "STeel Gold.001",
            "pbrMetallicRoughness" : {
                "baseColorFactor" : [
                    1,
                    0.5799999833106995,
                    0.12999999523162842,
                    1
                ],
                "roughnessFactor" : 0.20000000298023224
            }
        }
    ],
    "meshes" : [
        {
            "name" : "Cylinder.012",
            "primitives" : [
                {
                    "attributes" : {
                        "POSITION" : 0,
                        "NORMAL" : 1,
                        "TEXCOORD_0" : 2
                    },
                    "indices" : 3,
                    "material" : 0
                },
                {
                    "attributes" : {
                        "POSITION" : 4,
                        "NORMAL" : 5,
                        "TEXCOORD_0" : 6
                    },
                    "indices" : 7,
                    "material" : 1
                }
            ]
        }
    ],
    "accessors" : [
        {
            "bufferView" : 0,
            "componentType" : 5126,
            "count" : 610,
            "max" : [
                0.28810423612594604,
                0.28098422288894653,
                2.49448299407959
            ],
            "min" : [
                -0.2881043255329132,
                -0.2809833586215973,
                -0.24613621830940247
            ],
            "type" : "VEC3"
        },
        {
            "bufferView" : 1,
            "componentType" : 5126,
            "count" : 610,
            "type" : "VEC3"
        },
        {
            "bufferView" : 2,
            "componentType" : 5126,
            "count" : 610,
            "type" : "VEC2"
        },
        {
            "bufferView" : 3,
            "componentType" : 5123,
            "count" : 1788,
            "type" : "SCALAR"
        },
        {
            "bufferView" : 4,
            "componentType" : 5126,
            "count" : 32,
            "max" : [
                0.11987942457199097,
                0.18780997395515442,
                2.4363465309143066
            ],
            "min" : [
                0.11987938731908798,
                -0.1878128945827484,
                2.0607237815856934
            ],
            "type" : "VEC3"
        },
        {
            "bufferView" : 5,
            "componentType" : 5126,
            "count" : 32,
            "type" : "VEC3"
        },
        {
            "bufferView" : 6,
            "componentType" : 5126,
            "count" : 32,
            "type" : "VEC2"
        },
        {
            "bufferView" : 7,
            "componentType" : 5123,
            "count" : 96,
            "type" : "SCALAR"
        }
    ],
    "bufferViews" : [
        {
            "buffer" : 0,
            "byteLength" : 7320,
            "byteOffset" : 0,
            "target" : 34962
        },
        {
            "buffer" : 0,
            "byteLength" : 7320,
            "byteOffset" : 7320,
            "target" : 34962
        },
        {
            "buffer" : 0,
            "byteLength" : 4880,
            "byteOffset" : 14640,
            "target" : 34962
        },
        {
            "buffer" : 0,
            "byteLength" : 3576,
            "byteOffset" : 19520,
            "target" : 34963
        },
        {
            "buffer" : 0,
            "byteLength" : 384,
            "byteOffset" : 23096,
            "target" : 34962
        },
        {
            "buffer" : 0,
            "byteLength" : 384,
            "byteOffset" : 23480,
            "target" : 34962
        },
        {
            "buffer" : 0,
            "byteLength" : 256,
            "byteOffset" : 23864,
            "target" : 34962
        },
        {
            "buffer" : 0,
            "byteLength" : 192,
            "byteOffset" : 24120,
            "target" : 34963
        }
    ],
    "buffers" : [
        {
            "byteLength" : 24312,
            "uri" : "data:application/octet-stream;base64,"
        }
    ]
}
