{
    "asset" : {
        "generator" : "Khronos glTF Blender I/O v3.3.35",
        "version" : "2.0"
    },
    "scene" : 0,
    "scenes" : [
        {
            "name" : "Scene",
            "nodes" : [
                0
            ]
        }
    ],
    "nodes" : [
        {
            "mesh" : 0,
            "name" : "Cube.165",
            "rotation" : [
                0,
                0.9954935312271118,
                0.09482935816049576,
                7.533143531190944e-08
            ]
        }
    ],
    "materials" : [
        {
            "doubleSided" : true,
            "name" : "STeel#01.006",
            "pbrMetallicRoughness" : {
                "baseColorFactor" : [
                    0.46778395771980286,
                    0.46778395771980286,
                    0.46778395771980286,
                    1
                ],
                "roughnessFactor" : 0.6000000238418579
            }
        }
    ],
    "meshes" : [
        {
            "name" : "Cube.005",
            "primitives" : [
                {
                    "attributes" : {
                        "POSITION" : 0,
                        "NORMAL" : 1,
                        "TEXCOORD_0" : 2
                    },
                    "indices" : 3,
                    "material" : 0
                }
            ]
        }
    ],
    "accessors" : [
        {
            "bufferView" : 0,
            "componentType" : 5126,
            "count" : 809,
            "max" : [
                0.4381663203239441,
                1.0740020275115967,
                0.1866905391216278
            ],
            "min" : [
                -0.4381663203239441,
                -0.18669049441814423,
                -0.3983622193336487
            ],
            "type" : "VEC3"
        },
        {
            "bufferView" : 1,
            "componentType" : 5126,
            "count" : 809,
            "type" : "VEC3"
        },
        {
            "bufferView" : 2,
            "componentType" : 5126,
            "count" : 809,
            "type" : "VEC2"
        },
        {
            "bufferView" : 3,
            "componentType" : 5123,
            "count" : 2280,
            "type" : "SCALAR"
        }
    ],
    "bufferViews" : [
        {
            "buffer" : 0,
            "byteLength" : 9708,
            "byteOffset" : 0,
            "target" : 34962
        },
        {
            "buffer" : 0,
            "byteLength" : 9708,
            "byteOffset" : 9708,
            "target" : 34962
        },
        {
            "buffer" : 0,
            "byteLength" : 6472,
            "byteOffset" : 19416,
            "target" : 34962
        },
        {
            "buffer" : 0,
            "byteLength" : 4560,
            "byteOffset" : 25888,
            "target" : 34963
        }
    ],
    "buffers" : [
        {
            "byteLength" : 30448,
            "uri" : "data:application/octet-stream;base64,"
        }
    ]
}
